<svg xmlns="http://www.w3.org/2000/svg" xmlns:xlink="http://www.w3.org/1999/xlink" contentStyleType="text/css" height="491px" preserveAspectRatio="none" style="width:1113px;height:491px;background:#FFFFFF;" version="1.1" viewBox="0 0 1113 491" width="1113px" zoomAndPan="magnify"><defs/><g><text fill="#000000" font-family="sans-serif" font-size="14" font-weight="bold" lengthAdjust="spacing" textLength="310" x="394.5" y="22.9951">Event bus for cross-service integration</text><!--cluster Platform--><g id="cluster_Platform"><rect fill="none" height="303.89" rx="2.5" ry="2.5" style="stroke:#181818;stroke-width:1.0;" width="1100" x="7" y="182.0969"/><text fill="#000000" font-family="sans-serif" font-size="14" font-weight="bold" lengthAdjust="spacing" textLength="66" x="524" y="197.092">Platform</text></g><!--entity Order--><g id="elem_Order"><rect fill="#F1F1F1" height="36.2969" rx="2.5" ry="2.5" style="stroke:#181818;stroke-width:0.5;" width="113" x="409.5" y="217.0969"/><text fill="#000000" font-family="sans-serif" font-size="14" lengthAdjust="spacing" textLength="93" x="419.5" y="240.092">Order Service</text></g><!--entity Payment--><g id="elem_Payment"><rect fill="#F1F1F1" height="36.2969" rx="2.5" ry="2.5" style="stroke:#181818;stroke-width:0.5;" width="134" x="104" y="433.6869"/><text fill="#000000" font-family="sans-serif" font-size="14" lengthAdjust="spacing" textLength="114" x="114" y="456.682">Payment Service</text></g><!--entity Shipping--><g id="elem_Shipping"><rect fill="#F1F1F1" height="36.2969" rx="2.5" ry="2.5" style="stroke:#181818;stroke-width:0.5;" width="134" x="514" y="433.6869"/><text fill="#000000" font-family="sans-serif" font-size="14" lengthAdjust="spacing" textLength="114" x="524" y="456.682">Shipping Service</text></g><!--entity Notification--><g id="elem_Notification"><rect fill="#F1F1F1" height="36.2969" rx="2.5" ry="2.5" style="stroke:#181818;stroke-width:0.5;" width="150" x="846" y="433.6869"/><text fill="#000000" font-family="sans-serif" font-size="14" lengthAdjust="spacing" textLength="130" x="856" y="456.682">Notification Service</text></g><!--entity Bus--><g id="elem_Bus"><path d="M426,330.3969 L506,330.3969 C511,330.3969 511,343.5453 511,343.5453 C511,343.5453 511,356.6937 506,356.6937 L426,356.6937 C421,356.6937 421,343.5453 421,343.5453 C421,343.5453 421,330.3969 426,330.3969 " fill="#F1F1F1" style="stroke:#181818;stroke-width:0.5;"/><path d="M506,330.3969 C501,330.3969 501,343.5453 501,343.5453 C501,356.6937 506,356.6937 506,356.6937 " fill="none" style="stroke:#181818;stroke-width:0.5;"/><text fill="#000000" font-family="sans-serif" font-size="14" lengthAdjust="spacing" textLength="70" x="426" y="348.392">Event Bus</text></g><!--entity Client--><g id="elem_Client"><ellipse cx="466" cy="51.2969" fill="#F1F1F1" rx="8" ry="8" style="stroke:#181818;stroke-width:0.5;"/><path d="M466,59.2969 L466,86.2969 M453,67.2969 L479,67.2969 M466,86.2969 L453,101.2969 M466,86.2969 L479,101.2969 " fill="none" style="stroke:#181818;stroke-width:0.5;"/><text fill="#000000" font-family="sans-serif" font-size="14" lengthAdjust="spacing" textLength="98" x="417" y="115.792">External Client</text></g><!--link Client to Order--><g id="link_Client_Order"><path d="M466,119.5969 C466,150.5969 466,187.1669 466,210.7369 " fill="none" id="Client-to-Order" style="stroke:#181818;stroke-width:1.0;"/><polygon fill="#181818" points="466,216.7369,470,207.7369,466,211.7369,462,207.7369,466,216.7369" style="stroke:#181818;stroke-width:1.0;"/><text fill="#000000" font-family="sans-serif" font-size="13" lengthAdjust="spacing" textLength="81" x="467" y="162.1638">Create order</text></g><!--link Order to Bus--><g id="link_Order_Bus"><path d="M466,253.7969 C466,275.2569 466,305.0569 466,323.9669 " fill="none" id="Order-to-Bus" style="stroke:#181818;stroke-width:1.0;"/><polygon fill="#181818" points="466,329.9669,470,320.9669,466,324.9669,462,320.9669,466,329.9669" style="stroke:#181818;stroke-width:1.0;"/><text fill="#000000" font-family="sans-serif" font-size="13" lengthAdjust="spacing" textLength="136" x="467" y="296.4638">Publish OrderCreated</text></g><!--link Bus to Payment--><g id="link_Bus_Payment"><path d="M420.58,345.8369 C318.75,349.2069 79.15,359.9369 55,386.6869 C34.18,409.7469 61.8181,424.6534 98.0381,435.1734 " fill="none" id="Bus-to-Payment" style="stroke:#181818;stroke-width:1.0;"/><polygon fill="#181818" points="103.8,436.8469,96.2729,430.4953,98.9984,435.4523,94.0415,438.1778,103.8,436.8469" style="stroke:#181818;stroke-width:1.0;"/><text fill="#000000" font-family="sans-serif" font-size="13" lengthAdjust="spacing" textLength="152" x="56" y="399.7538">Consume OrderCreated</text></g><!--link Payment to Bus--><g id="link_Payment_Bus"><path d="M194.15,433.3869 C214.46,418.8769 245.31,398.7169 275,386.6869 C322.84,367.3069 375.2662,356.9755 414.7962,351.0555 " fill="none" id="Payment-to-Bus" style="stroke:#181818;stroke-width:1.0;"/><polygon fill="#181818" points="420.73,350.1669,411.2368,347.544,415.7851,350.9074,412.4217,355.4557,420.73,350.1669" style="stroke:#181818;stroke-width:1.0;"/><text fill="#000000" font-family="sans-serif" font-size="13" lengthAdjust="spacing" textLength="172" x="276" y="399.7538">Publish PaymentConfirmed</text></g><!--link Bus to Shipping--><g id="link_Bus_Shipping"><path d="M461.31,357.0269 C457.34,369.8769 453.66,389.8969 463,403.6869 C474.75,421.0469 488.3732,430.0068 507.9732,436.9368 " fill="none" id="Bus-to-Shipping" style="stroke:#181818;stroke-width:1.0;"/><polygon fill="#181818" points="513.63,438.9369,506.4782,432.1655,508.916,437.2701,503.8114,439.708,513.63,438.9369" style="stroke:#181818;stroke-width:1.0;"/><text fill="#000000" font-family="sans-serif" font-size="13" lengthAdjust="spacing" textLength="188" x="464" y="399.7538">Consume PaymentConfirmed</text></g><!--link Shipping to Bus--><g id="link_Shipping_Bus"><path d="M626.2,433.3069 C649.99,421.4569 671.49,404.7269 657,386.6869 C639.08,364.3869 567.9702,353.784 517.3802,348.724 " fill="none" id="Shipping-to-Bus" style="stroke:#181818;stroke-width:1.0;"/><polygon fill="#181818" points="511.41,348.1269,519.9672,353.0027,516.3852,348.6245,520.7634,345.0424,511.41,348.1269" style="stroke:#181818;stroke-width:1.0;"/><text fill="#000000" font-family="sans-serif" font-size="13" lengthAdjust="spacing" textLength="183" x="662.7" y="399.7538">Publish ShipmentDispatched</text></g><!--link Bus to Notification--><g id="link_Bus_Notification"><path d="M511.18,345.7669 C600.23,348.7769 794.99,358.4669 855,386.6869 C877.27,397.1569 892.9242,413.5281 904.8142,428.6681 " fill="none" id="Bus-to-Notification" style="stroke:#181818;stroke-width:1.0;"/><polygon fill="#181818" points="908.52,433.3869,906.1071,423.8382,905.4318,429.4546,899.8154,428.7793,908.52,433.3869" style="stroke:#181818;stroke-width:1.0;"/><text fill="#000000" font-family="sans-serif" font-size="13" lengthAdjust="spacing" textLength="168" x="880.97" y="399.7538">Consume business events</text></g><!--SRC=[PP8zRiCm34PtdOBmdWjqwD0qQniW9s0KEYOgIwv89msAthsKbHyRcIpmUtmW2Ijh8DYSA2hiHu4sPV0vYQo4yeaz0KUbOqRb59sJBuu3Pkn1EZoaCySZj1Y4PebF_P2Y2NTwCNSchnYFWPn3hwPlDZzAEMA0TM336a2vFfsxqz1i0wgDqpVmw-1XXUOp7oZ3hiutTK-L9RJ5IryUS-nQMuAxZeUXx34dRyKb-f6KM_RJBHRuFB2Mxv56Mw1UzMsKYR6l-tEkBWghrMkT6bvWdGcL84rBr6A9hS72xRWFB5s5Atbm9Ih8RKbpf2XZJqli5Z_RhebrjPpxcV5-ZOVoYRqppzuI5VYTPK3rtSoyEDx3RZyTHn81AjUIVm00]--></g></svg>